<svg version="1.1" xmlns="http://www.w3.org/2000/svg" xmlns:xlink="http://www.w3.org/1999/xlink" width="24" height="24" viewBox="0,0,256,256"><g fill="none" fill-rule="nonzero" stroke="#ff4646" stroke-width="1.5" stroke-linecap="none" stroke-linejoin="none" stroke-miterlimit="10" stroke-dasharray="" stroke-dashoffset="0" font-family="none" font-weight="none" font-size="none" text-anchor="none" style="mix-blend-mode: normal"><g transform="scale(10.66667,10.66667)"><path d="M12,16c2.2091,0 4,-1.7909 4,-4c0,-2.20914 -1.7909,-4 -4,-4c-2.20914,0 -4,1.79086 -4,4c0,2.2091 1.79086,4 4,4z" stroke-linecap="round" stroke-linejoin="round"></path><path d="M3,16v-8c0,-2.76142 2.23858,-5 5,-5h8c2.7614,0 5,2.23858 5,5v8c0,2.7614 -2.2386,5 -5,5h-8c-2.76142,0 -5,-2.2386 -5,-5z" stroke-linecap="butt" stroke-linejoin="miter"></path><path d="M17.5,6.51l0.01,-0.01111" stroke-linecap="round" stroke-linejoin="round"></path></g></g></svg>